<mxfile host="app.diagrams.net" agent="Mozilla/5.0 (Macintosh; Intel Mac OS X 10_15_7) AppleWebKit/537.36 (KHTML, like Gecko) Chrome/129.0.0.0 Safari/537.36" version="24.8.3">
  <diagram name="Page-1" id="RT4GRkkFQH6xOLgiwApK">
    <mxGraphModel dx="1060" dy="589" grid="1" gridSize="10" guides="1" tooltips="1" connect="1" arrows="1" fold="1" page="1" pageScale="1" pageWidth="850" pageHeight="1100" math="0" shadow="0">
      <root>
        <mxCell id="0" />
        <mxCell id="1" parent="0" />
        <mxCell id="L6vFcA4xw2nvtrMXPZ_j-1" value="" style="rounded=1;whiteSpace=wrap;html=1;" vertex="1" parent="1">
          <mxGeometry x="380" y="150" width="340" height="210" as="geometry" />
        </mxCell>
        <mxCell id="L6vFcA4xw2nvtrMXPZ_j-2" value="" style="rounded=1;whiteSpace=wrap;html=1;" vertex="1" parent="1">
          <mxGeometry x="640" y="550" width="440" height="200" as="geometry" />
        </mxCell>
        <mxCell id="L6vFcA4xw2nvtrMXPZ_j-3" value="" style="rounded=1;whiteSpace=wrap;html=1;" vertex="1" parent="1">
          <mxGeometry x="10" y="510" width="260" height="230" as="geometry" />
        </mxCell>
        <mxCell id="L6vFcA4xw2nvtrMXPZ_j-4" value="" style="rounded=1;whiteSpace=wrap;html=1;" vertex="1" parent="1">
          <mxGeometry x="420" y="430" width="180" height="120" as="geometry" />
        </mxCell>
        <mxCell id="L6vFcA4xw2nvtrMXPZ_j-7" value="JIRA CONTROLLER" style="text;html=1;align=center;verticalAlign=middle;whiteSpace=wrap;rounded=0;" vertex="1" parent="1">
          <mxGeometry x="75" y="520" width="130" height="30" as="geometry" />
        </mxCell>
        <mxCell id="L6vFcA4xw2nvtrMXPZ_j-13" style="edgeStyle=orthogonalEdgeStyle;rounded=0;orthogonalLoop=1;jettySize=auto;html=1;entryX=0;entryY=0.5;entryDx=0;entryDy=0;" edge="1" parent="1" source="L6vFcA4xw2nvtrMXPZ_j-8" target="L6vFcA4xw2nvtrMXPZ_j-11">
          <mxGeometry relative="1" as="geometry" />
        </mxCell>
        <mxCell id="L6vFcA4xw2nvtrMXPZ_j-8" value="getContentConflu(data)" style="text;html=1;align=center;verticalAlign=middle;whiteSpace=wrap;rounded=0;" vertex="1" parent="1">
          <mxGeometry x="10" y="570" width="140" height="30" as="geometry" />
        </mxCell>
        <mxCell id="L6vFcA4xw2nvtrMXPZ_j-9" value="combineContent(getContentConflu())" style="text;html=1;align=center;verticalAlign=middle;whiteSpace=wrap;rounded=0;" vertex="1" parent="1">
          <mxGeometry x="10" y="600" width="210" height="30" as="geometry" />
        </mxCell>
        <mxCell id="L6vFcA4xw2nvtrMXPZ_j-10" value="STRIDE-GPT" style="text;html=1;align=center;verticalAlign=middle;whiteSpace=wrap;rounded=0;" vertex="1" parent="1">
          <mxGeometry x="470" y="150" width="100" height="30" as="geometry" />
        </mxCell>
        <mxCell id="L6vFcA4xw2nvtrMXPZ_j-11" value="inputData" style="text;html=1;align=center;verticalAlign=middle;whiteSpace=wrap;rounded=0;" vertex="1" parent="1">
          <mxGeometry x="385" y="195" width="60" height="30" as="geometry" />
        </mxCell>
        <mxCell id="L6vFcA4xw2nvtrMXPZ_j-15" value="AI SERVICE" style="text;html=1;align=center;verticalAlign=middle;whiteSpace=wrap;rounded=0;" vertex="1" parent="1">
          <mxGeometry x="725" y="560" width="80" height="30" as="geometry" />
        </mxCell>
        <mxCell id="L6vFcA4xw2nvtrMXPZ_j-17" style="edgeStyle=orthogonalEdgeStyle;rounded=0;orthogonalLoop=1;jettySize=auto;html=1;entryX=1;entryY=0.5;entryDx=0;entryDy=0;" edge="1" parent="1" source="L6vFcA4xw2nvtrMXPZ_j-16" target="L6vFcA4xw2nvtrMXPZ_j-9">
          <mxGeometry relative="1" as="geometry" />
        </mxCell>
        <mxCell id="L6vFcA4xw2nvtrMXPZ_j-16" value="sumaryContent(combineContent())" style="text;html=1;align=center;verticalAlign=middle;whiteSpace=wrap;rounded=0;" vertex="1" parent="1">
          <mxGeometry x="640" y="600" width="190" height="30" as="geometry" />
        </mxCell>
        <mxCell id="L6vFcA4xw2nvtrMXPZ_j-20" style="edgeStyle=orthogonalEdgeStyle;rounded=0;orthogonalLoop=1;jettySize=auto;html=1;entryX=0;entryY=0.75;entryDx=0;entryDy=0;exitX=1;exitY=0.25;exitDx=0;exitDy=0;" edge="1" parent="1" source="L6vFcA4xw2nvtrMXPZ_j-18" target="L6vFcA4xw2nvtrMXPZ_j-16">
          <mxGeometry relative="1" as="geometry" />
        </mxCell>
        <mxCell id="L6vFcA4xw2nvtrMXPZ_j-18" value="getSumaryContent(sumaryContent())" style="text;html=1;align=center;verticalAlign=middle;whiteSpace=wrap;rounded=0;" vertex="1" parent="1">
          <mxGeometry x="10" y="630" width="210" height="30" as="geometry" />
        </mxCell>
        <mxCell id="L6vFcA4xw2nvtrMXPZ_j-21" value="STORAGE" style="text;html=1;align=center;verticalAlign=middle;whiteSpace=wrap;rounded=0;" vertex="1" parent="1">
          <mxGeometry x="480" y="430" width="60" height="30" as="geometry" />
        </mxCell>
        <mxCell id="L6vFcA4xw2nvtrMXPZ_j-23" style="edgeStyle=orthogonalEdgeStyle;rounded=0;orthogonalLoop=1;jettySize=auto;html=1;entryX=1;entryY=0.75;entryDx=0;entryDy=0;" edge="1" parent="1" source="L6vFcA4xw2nvtrMXPZ_j-22" target="L6vFcA4xw2nvtrMXPZ_j-18">
          <mxGeometry relative="1" as="geometry" />
        </mxCell>
        <mxCell id="L6vFcA4xw2nvtrMXPZ_j-22" value="saveSumaryContentToFile()" style="text;html=1;align=center;verticalAlign=middle;whiteSpace=wrap;rounded=0;" vertex="1" parent="1">
          <mxGeometry x="410" y="480" width="170" height="30" as="geometry" />
        </mxCell>
        <mxCell id="L6vFcA4xw2nvtrMXPZ_j-24" value="hashFile(getSumaryContent())" style="text;html=1;align=center;verticalAlign=middle;whiteSpace=wrap;rounded=0;" vertex="1" parent="1">
          <mxGeometry x="10" y="660" width="180" height="30" as="geometry" />
        </mxCell>
        <mxCell id="L6vFcA4xw2nvtrMXPZ_j-26" style="edgeStyle=orthogonalEdgeStyle;rounded=0;orthogonalLoop=1;jettySize=auto;html=1;entryX=1;entryY=0.5;entryDx=0;entryDy=0;" edge="1" parent="1" source="L6vFcA4xw2nvtrMXPZ_j-25" target="L6vFcA4xw2nvtrMXPZ_j-24">
          <mxGeometry relative="1" as="geometry" />
        </mxCell>
        <mxCell id="L6vFcA4xw2nvtrMXPZ_j-25" value="getHashFile(hashFile())" style="text;html=1;align=center;verticalAlign=middle;whiteSpace=wrap;rounded=0;" vertex="1" parent="1">
          <mxGeometry x="385" y="220" width="135" height="30" as="geometry" />
        </mxCell>
        <mxCell id="L6vFcA4xw2nvtrMXPZ_j-28" style="edgeStyle=orthogonalEdgeStyle;rounded=0;orthogonalLoop=1;jettySize=auto;html=1;entryX=0.25;entryY=0;entryDx=0;entryDy=0;exitX=0;exitY=0.5;exitDx=0;exitDy=0;" edge="1" parent="1" source="L6vFcA4xw2nvtrMXPZ_j-27" target="L6vFcA4xw2nvtrMXPZ_j-22">
          <mxGeometry relative="1" as="geometry" />
        </mxCell>
        <mxCell id="L6vFcA4xw2nvtrMXPZ_j-27" value="getSumaryContentWithHashFile(getHashFile)" style="text;html=1;align=center;verticalAlign=middle;whiteSpace=wrap;rounded=0;" vertex="1" parent="1">
          <mxGeometry x="380" y="250" width="260" height="30" as="geometry" />
        </mxCell>
        <mxCell id="L6vFcA4xw2nvtrMXPZ_j-31" style="edgeStyle=orthogonalEdgeStyle;rounded=0;orthogonalLoop=1;jettySize=auto;html=1;entryX=1;entryY=0.5;entryDx=0;entryDy=0;exitX=1;exitY=0.5;exitDx=0;exitDy=0;" edge="1" parent="1" source="L6vFcA4xw2nvtrMXPZ_j-29" target="L6vFcA4xw2nvtrMXPZ_j-27">
          <mxGeometry relative="1" as="geometry" />
        </mxCell>
        <mxCell id="L6vFcA4xw2nvtrMXPZ_j-29" value="createThreatModelWithSumaryFile(getSumaryContentWithHashFile())" style="text;html=1;align=center;verticalAlign=middle;whiteSpace=wrap;rounded=0;" vertex="1" parent="1">
          <mxGeometry x="640" y="640" width="380" height="30" as="geometry" />
        </mxCell>
        <mxCell id="L6vFcA4xw2nvtrMXPZ_j-33" style="edgeStyle=orthogonalEdgeStyle;rounded=0;orthogonalLoop=1;jettySize=auto;html=1;entryX=1;entryY=0;entryDx=0;entryDy=0;exitX=1;exitY=0.5;exitDx=0;exitDy=0;" edge="1" parent="1" source="L6vFcA4xw2nvtrMXPZ_j-32" target="L6vFcA4xw2nvtrMXPZ_j-29">
          <mxGeometry relative="1" as="geometry" />
        </mxCell>
        <mxCell id="L6vFcA4xw2nvtrMXPZ_j-32" value="getResultThreatModel(createThreatModelWithSumaryFile())" style="text;html=1;align=center;verticalAlign=middle;whiteSpace=wrap;rounded=0;" vertex="1" parent="1">
          <mxGeometry x="380" y="290" width="340" height="30" as="geometry" />
        </mxCell>
        <mxCell id="L6vFcA4xw2nvtrMXPZ_j-34" value="outData(getResultThreatModel())" style="text;html=1;align=center;verticalAlign=middle;whiteSpace=wrap;rounded=0;" vertex="1" parent="1">
          <mxGeometry x="385" y="320" width="190" height="30" as="geometry" />
        </mxCell>
      </root>
    </mxGraphModel>
  </diagram>
</mxfile>
